<svg xmlns="http://www.w3.org/2000/svg" xmlns:xlink="http://www.w3.org/1999/xlink" width="500" zoomAndPan="magnify" viewBox="0 0 375 374.999991" height="500" preserveAspectRatio="xMidYMid meet" version="1.0"><defs><g/><clipPath id="id1"><path d="M 99.800781 152 L 114 152 L 114 175 L 99.800781 175 Z M 99.800781 152 " clip-rule="nonzero"/></clipPath><clipPath id="id2"><path d="M 237 141 L 275.300781 141 L 275.300781 177 L 237 177 Z M 237 141 " clip-rule="nonzero"/></clipPath><clipPath id="id3"><path d="M 157 75 L 217 75 L 217 205.5 L 157 205.5 Z M 157 75 " clip-rule="nonzero"/></clipPath></defs><g clip-path="url(#id1)"><path fill="#ec1d27" d="M 112.417969 152.570312 L 113.886719 154.792969 C 108.300781 160.617188 103.546875 167.238281 99.800781 174.46875 C 102.9375 166.574219 107.207031 159.214844 112.417969 152.570312 " fill-opacity="1" fill-rule="nonzero"/></g><path fill="#ec1d27" d="M 125.5625 144.648438 C 122.199219 147.066406 119.023438 149.730469 116.058594 152.613281 L 114.417969 150.125 C 117.125 146.910156 120.054688 143.878906 123.199219 141.066406 L 125.5625 144.648438 " fill-opacity="1" fill-rule="nonzero"/><path fill="#ec1d27" d="M 139.933594 136.324219 C 135.777344 138.210938 131.800781 140.421875 128.042969 142.929688 L 125.492188 139.0625 C 129.152344 135.988281 133.0625 133.175781 137.195312 130.671875 L 139.933594 136.324219 " fill-opacity="1" fill-rule="nonzero"/><path fill="#ec1d27" d="M 159.890625 130.132812 C 153.917969 131.191406 148.167969 132.882812 142.710938 135.121094 L 139.8125 129.144531 C 145.621094 125.867188 151.835938 123.175781 158.367188 121.15625 L 159.890625 130.132812 " fill-opacity="1" fill-rule="nonzero"/><path fill="#ec1d27" d="M 187.292969 116.847656 L 186.703125 129.683594 C 182.777344 129.125 178.761719 128.835938 174.6875 128.835938 C 170.675781 128.835938 166.730469 129.113281 162.867188 129.664062 L 161.289062 120.304688 C 169.472656 118.054688 178.125 116.847656 187.070312 116.847656 L 187.292969 116.847656 " fill-opacity="1" fill-rule="nonzero"/><path fill="#ec1d27" d="M 220.351562 122.703125 L 213.039062 138.066406 C 205.800781 134.351562 197.957031 131.65625 189.695312 130.175781 L 190.308594 116.902344 C 200.859375 117.246094 210.96875 119.269531 220.351562 122.703125 " fill-opacity="1" fill-rule="nonzero"/><path fill="#ec1d27" d="M 249.582031 139.867188 L 235.089844 154.382812 C 229.40625 148.527344 222.878906 143.503906 215.707031 139.492188 L 223.179688 123.789062 C 232.933594 127.703125 241.84375 133.171875 249.582031 139.867188 " fill-opacity="1" fill-rule="nonzero"/><g clip-path="url(#id2)"><path fill="#ec1d27" d="M 275.300781 176.976562 L 250.820312 176.976562 C 247.261719 169.511719 242.648438 162.644531 237.15625 156.585938 L 251.839844 141.878906 C 262.320312 151.542969 270.4375 163.535156 275.300781 176.976562 " fill-opacity="1" fill-rule="nonzero"/></g><path fill="#ec1d27" d="M 182.417969 138.097656 C 182.417969 138.097656 182.042969 138.007812 181.34375 137.84375 C 180.992188 137.761719 180.5625 137.664062 180.050781 137.542969 C 179.5625 137.449219 179.003906 137.339844 178.371094 137.21875 C 177.75 137.085938 177.035156 136.980469 176.257812 136.863281 C 175.484375 136.734375 174.636719 136.632812 173.734375 136.535156 C 171.925781 136.320312 169.875 136.207031 167.628906 136.140625 C 165.382812 136.128906 162.941406 136.15625 160.371094 136.398438 C 157.804688 136.636719 155.089844 136.96875 152.320312 137.542969 C 149.554688 138.105469 146.710938 138.816406 143.875 139.726562 C 143.164062 139.953125 142.464844 140.207031 141.753906 140.449219 C 141.410156 140.570312 141.015625 140.695312 140.714844 140.816406 L 139.648438 141.234375 C 138.933594 141.515625 138.222656 141.796875 137.507812 142.078125 L 135.445312 142.996094 C 134.0625 143.582031 132.722656 144.304688 131.371094 144.980469 C 130.6875 145.308594 130.046875 145.710938 129.386719 146.074219 C 128.738281 146.449219 128.074219 146.804688 127.4375 147.195312 C 126.804688 147.597656 126.175781 147.996094 125.550781 148.390625 L 124.613281 148.988281 L 123.714844 149.625 C 123.113281 150.046875 122.515625 150.464844 121.921875 150.882812 C 121.34375 151.316406 120.78125 151.765625 120.214844 152.203125 C 117.949219 153.941406 115.917969 155.820312 114.03125 157.640625 C 113.128906 158.59375 112.226562 159.5 111.40625 160.417969 C 110.613281 161.367188 109.792969 162.238281 109.097656 163.152344 C 107.664062 164.945312 106.457031 166.671875 105.433594 168.234375 C 104.941406 169.03125 104.484375 169.773438 104.058594 170.460938 C 103.660156 171.164062 103.3125 171.824219 102.992188 172.414062 C 102.320312 173.582031 101.925781 174.5625 101.601562 175.207031 C 101.292969 175.859375 101.132812 176.207031 101.132812 176.207031 C 101.132812 176.207031 101.28125 175.851562 101.558594 175.1875 C 101.855469 174.53125 102.210938 173.527344 102.828125 172.332031 C 103.128906 171.726562 103.445312 171.050781 103.816406 170.328125 C 104.214844 169.617188 104.644531 168.851562 105.101562 168.03125 C 106.0625 166.414062 107.203125 164.621094 108.574219 162.75 C 109.238281 161.796875 110.023438 160.882812 110.785156 159.890625 C 111.578125 158.921875 112.449219 157.964844 113.324219 156.960938 C 115.15625 155.035156 117.140625 153.035156 119.367188 151.167969 C 119.925781 150.699219 120.476562 150.214844 121.050781 149.746094 C 121.636719 149.296875 122.226562 148.84375 122.820312 148.386719 L 123.714844 147.699219 L 124.640625 147.050781 C 125.265625 146.617188 125.890625 146.183594 126.515625 145.746094 C 127.148438 145.316406 127.8125 144.925781 128.460938 144.511719 C 129.121094 144.109375 129.757812 143.667969 130.441406 143.304688 C 131.796875 142.550781 133.132812 141.753906 134.550781 141.082031 L 136.65625 140.035156 C 137.359375 139.722656 138.058594 139.410156 138.757812 139.101562 L 139.804688 138.636719 C 140.203125 138.457031 140.539062 138.34375 140.90625 138.195312 C 141.625 137.914062 142.339844 137.617188 143.058594 137.355469 C 145.941406 136.289062 148.847656 135.429688 151.695312 134.71875 C 154.542969 134.003906 157.351562 133.53125 160.023438 133.167969 C 162.699219 132.800781 165.253906 132.660156 167.613281 132.570312 C 169.976562 132.539062 172.148438 132.566406 174.066406 132.710938 C 175.027344 132.773438 175.925781 132.84375 176.753906 132.945312 C 177.585938 133.035156 178.347656 133.109375 179.046875 133.226562 C 179.742188 133.332031 180.363281 133.425781 180.902344 133.507812 C 181.414062 133.605469 181.851562 133.6875 182.203125 133.753906 C 182.914062 133.886719 183.289062 133.960938 183.289062 133.960938 L 182.417969 138.097656 " fill-opacity="1" fill-rule="nonzero"/><g clip-path="url(#id3)"><path fill="#ec1d27" d="M 177.214844 183.457031 L 216.464844 75.003906 L 168.683594 180.953125 C 162.398438 181.492188 157.460938 186.761719 157.460938 193.199219 C 157.460938 199.988281 162.960938 205.496094 169.742188 205.496094 C 176.523438 205.496094 182.019531 199.988281 182.019531 193.199219 C 182.019531 189.226562 180.132812 185.703125 177.214844 183.457031 " fill-opacity="1" fill-rule="nonzero"/></g><path fill="#ec1d27" d="M 232.429688 181.617188 L 230.527344 178.433594 L 239.851562 172.855469 L 241.75 176.039062 L 232.429688 181.617188 " fill-opacity="1" fill-rule="nonzero"/><path fill="#ec1d27" d="M 222.992188 168.367188 L 220.476562 165.648438 L 228.4375 158.25 L 230.953125 160.96875 L 222.992188 168.367188 " fill-opacity="1" fill-rule="nonzero"/><path fill="#ec1d27" d="M 211.015625 157.371094 L 207.988281 155.238281 L 214.238281 146.34375 L 217.265625 148.480469 L 211.015625 157.371094 " fill-opacity="1" fill-rule="nonzero"/><path fill="#ec1d27" d="M 197.019531 149.109375 L 193.613281 147.652344 L 197.882812 137.652344 L 201.285156 139.113281 L 197.019531 149.109375 " fill-opacity="1" fill-rule="nonzero"/><g fill="#000000" fill-opacity="1"><g transform="translate(25.957034, 257.879837)"><g><path d="M 0.519531 0 L 10.5625 0 L 13.265625 -15.242188 L 27.054688 -15.242188 L 24.402344 0 L 34.441406 0 L 40.996094 -37.148438 L 30.90625 -37.148438 L 28.460938 -23.101562 L 14.621094 -23.101562 L 17.117188 -37.148438 L 7.074219 -37.148438 Z M 0.519531 0 "/></g></g></g><g fill="#000000" fill-opacity="1"><g transform="translate(65.647889, 257.879837)"><g><path d="M 13.683594 0.675781 C 22.789062 0.675781 29.605469 -4.628906 31.164062 -13.371094 C 32.671875 -22.113281 27.730469 -27.417969 18.679688 -27.417969 C 9.519531 -27.417969 2.707031 -22.113281 1.144531 -13.371094 C -0.363281 -4.683594 4.578125 0.675781 13.683594 0.675781 Z M 14.984375 -6.761719 C 11.445312 -6.761719 9.417969 -9.46875 10.09375 -13.371094 C 10.769531 -17.273438 13.734375 -19.980469 17.324219 -19.980469 C 20.914062 -19.980469 22.890625 -17.273438 22.214844 -13.371094 C 21.539062 -9.46875 18.574219 -6.761719 14.984375 -6.761719 Z M 14.984375 -6.761719 "/></g></g></g><g fill="#000000" fill-opacity="1"><g transform="translate(97.951983, 257.879837)"><g><path d="M 0.105469 0 L 9.054688 0 L 11.445312 -13.476562 C 12.121094 -17.222656 14.671875 -19.71875 17.792969 -19.71875 C 19.144531 -19.71875 20.863281 -19.300781 22.269531 -18.574219 L 23.722656 -26.585938 C 22.839844 -27.054688 21.746094 -27.261719 20.65625 -27.261719 C 17.742188 -27.261719 15.242188 -25.546875 13.578125 -22.578125 L 13.058594 -22.578125 L 13.734375 -26.742188 L 4.839844 -26.742188 Z M 0.105469 0 "/></g></g></g><g fill="#000000" fill-opacity="1"><g transform="translate(120.268338, 257.879837)"><g><path d="M 11.550781 0.882812 C 19.71875 0.882812 25.703125 -2.707031 26.742188 -8.53125 C 27.835938 -14.878906 21.902344 -15.867188 17.117188 -16.492188 C 13.527344 -16.910156 10.300781 -17.167969 10.71875 -19.613281 C 10.976562 -21.226562 12.902344 -22.320312 15.347656 -22.320312 C 18.15625 -22.320312 19.875 -20.863281 19.511719 -18.679688 L 27.367188 -18.679688 C 28.355469 -24.140625 23.515625 -27.625 16.234375 -27.625 C 8.792969 -27.625 3.328125 -24.089844 2.339844 -18.730469 C 1.039062 -11.394531 7.855469 -11.03125 12.539062 -10.5625 C 15.503906 -10.199219 18.054688 -9.9375 17.636719 -7.386719 C 17.273438 -5.617188 15.140625 -4.421875 12.644531 -4.421875 C 9.363281 -4.421875 7.441406 -6.140625 7.855469 -8.585938 L 0.363281 -8.585938 C -0.675781 -2.863281 3.746094 0.882812 11.550781 0.882812 Z M 11.550781 0.882812 "/></g></g></g><g fill="#000000" fill-opacity="1"><g transform="translate(149.035109, 257.879837)"><g><path d="M 13.734375 0.675781 C 20.550781 0.675781 26.847656 -2.707031 29.03125 -7.855469 L 21.433594 -8.949219 C 20.289062 -6.867188 17.949219 -5.359375 15.296875 -5.359375 C 11.863281 -5.359375 9.886719 -7.597656 9.988281 -10.976562 L 30.4375 -10.976562 C 30.59375 -11.394531 30.800781 -12.644531 30.90625 -13.265625 C 32.464844 -21.902344 27.679688 -27.417969 18.832031 -27.417969 C 9.988281 -27.417969 2.757812 -21.957031 1.195312 -13.421875 C -0.3125 -4.839844 4.839844 0.675781 13.734375 0.675781 Z M 10.71875 -15.609375 C 11.757812 -19.09375 14.359375 -21.382812 17.636719 -21.382812 C 20.863281 -21.382812 22.789062 -18.78125 22.371094 -15.609375 Z M 10.71875 -15.609375 "/></g></g></g><g fill="#000000" fill-opacity="1"><g transform="translate(181.131127, 257.879837)"><g><path d="M -1.976562 11.964844 L 6.972656 11.964844 L 9.730469 -3.851562 L 10.199219 -3.851562 C 11.5 -0.988281 13.945312 0.675781 17.792969 0.675781 C 24.871094 0.675781 30.644531 -4.839844 32.152344 -13.371094 C 33.660156 -22.007812 29.914062 -27.417969 22.734375 -27.417969 C 18.886719 -27.417969 15.867188 -25.753906 13.578125 -22.890625 L 13.109375 -22.890625 L 13.789062 -26.742188 L 4.839844 -26.742188 Z M 15.972656 -6.761719 C 12.433594 -6.761719 10.40625 -9.574219 11.03125 -13.371094 C 11.757812 -17.167969 14.777344 -19.980469 18.3125 -19.980469 C 21.851562 -19.980469 23.878906 -17.167969 23.203125 -13.371094 C 22.527344 -9.574219 19.511719 -6.761719 15.972656 -6.761719 Z M 15.972656 -6.761719 "/></g></g></g><g fill="#000000" fill-opacity="1"><g transform="translate(214.475615, 257.879837)"><g><path d="M 13.683594 0.675781 C 22.789062 0.675781 29.605469 -4.628906 31.164062 -13.371094 C 32.671875 -22.113281 27.730469 -27.417969 18.679688 -27.417969 C 9.519531 -27.417969 2.707031 -22.113281 1.144531 -13.371094 C -0.363281 -4.683594 4.578125 0.675781 13.683594 0.675781 Z M 14.984375 -6.761719 C 11.445312 -6.761719 9.417969 -9.46875 10.09375 -13.371094 C 10.769531 -17.273438 13.734375 -19.980469 17.324219 -19.980469 C 20.914062 -19.980469 22.890625 -17.273438 22.214844 -13.371094 C 21.539062 -9.46875 18.574219 -6.761719 14.984375 -6.761719 Z M 14.984375 -6.761719 "/></g></g></g><g fill="#000000" fill-opacity="1"><g transform="translate(246.779697, 257.879837)"><g><path d="M 5.984375 0 L 17.222656 0 L 24.140625 -16.285156 L 24.609375 -16.285156 L 25.859375 0 L 37.09375 0 L 49.476562 -26.742188 L 40.582031 -26.742188 L 32.777344 -8.84375 L 32.359375 -8.84375 L 30.226562 -26.742188 L 22.269531 -26.742188 L 14.203125 -9.105469 L 13.734375 -9.105469 L 12.277344 -26.742188 L 3.019531 -26.742188 Z M 5.984375 0 "/></g></g></g><g fill="#000000" fill-opacity="1"><g transform="translate(294.637604, 257.879837)"><g><path d="M 13.734375 0.675781 C 20.550781 0.675781 26.847656 -2.707031 29.03125 -7.855469 L 21.433594 -8.949219 C 20.289062 -6.867188 17.949219 -5.359375 15.296875 -5.359375 C 11.863281 -5.359375 9.886719 -7.597656 9.988281 -10.976562 L 30.4375 -10.976562 C 30.59375 -11.394531 30.800781 -12.644531 30.90625 -13.265625 C 32.464844 -21.902344 27.679688 -27.417969 18.832031 -27.417969 C 9.988281 -27.417969 2.757812 -21.957031 1.195312 -13.421875 C -0.3125 -4.839844 4.839844 0.675781 13.734375 0.675781 Z M 10.71875 -15.609375 C 11.757812 -19.09375 14.359375 -21.382812 17.636719 -21.382812 C 20.863281 -21.382812 22.789062 -18.78125 22.371094 -15.609375 Z M 10.71875 -15.609375 "/></g></g></g><g fill="#000000" fill-opacity="1"><g transform="translate(326.733611, 257.879837)"><g><path d="M 0.105469 0 L 9.054688 0 L 11.445312 -13.476562 C 12.121094 -17.222656 14.671875 -19.71875 17.792969 -19.71875 C 19.144531 -19.71875 20.863281 -19.300781 22.269531 -18.574219 L 23.722656 -26.585938 C 22.839844 -27.054688 21.746094 -27.261719 20.65625 -27.261719 C 17.742188 -27.261719 15.242188 -25.546875 13.578125 -22.578125 L 13.058594 -22.578125 L 13.734375 -26.742188 L 4.839844 -26.742188 Z M 0.105469 0 "/></g></g></g></svg>