<svg xmlns="http://www.w3.org/2000/svg" xmlns:xlink="http://www.w3.org/1999/xlink" width="500" zoomAndPan="magnify" viewBox="0 0 375 225" height="300" preserveAspectRatio="xMidYMid meet" version="1.0"><defs><g/><clipPath id="id1"><path d="M 99.800781 77 L 114 77 L 114 100 L 99.800781 100 Z M 99.800781 77 " clip-rule="nonzero"/></clipPath><clipPath id="id2"><path d="M 237 66 L 275.300781 66 L 275.300781 102 L 237 102 Z M 237 66 " clip-rule="nonzero"/></clipPath><clipPath id="id3"><path d="M 157 0 L 217 0 L 217 130.5 L 157 130.5 Z M 157 0 " clip-rule="nonzero"/></clipPath></defs><g clip-path="url(#id1)"><path fill="#ec1d27" d="M 112.417969 77.570312 L 113.886719 79.792969 C 108.300781 85.617188 103.546875 92.238281 99.800781 99.46875 C 102.9375 91.574219 107.207031 84.214844 112.417969 77.570312 " fill-opacity="1" fill-rule="nonzero"/></g><path fill="#ec1d27" d="M 125.5625 69.648438 C 122.199219 72.066406 119.023438 74.730469 116.058594 77.613281 L 114.417969 75.125 C 117.125 71.910156 120.054688 68.878906 123.199219 66.066406 L 125.5625 69.648438 " fill-opacity="1" fill-rule="nonzero"/><path fill="#ec1d27" d="M 139.933594 61.324219 C 135.777344 63.210938 131.800781 65.421875 128.042969 67.929688 L 125.492188 64.0625 C 129.152344 60.988281 133.0625 58.175781 137.195312 55.671875 L 139.933594 61.324219 " fill-opacity="1" fill-rule="nonzero"/><path fill="#ec1d27" d="M 159.890625 55.132812 C 153.917969 56.191406 148.167969 57.882812 142.710938 60.121094 L 139.8125 54.144531 C 145.621094 50.867188 151.835938 48.175781 158.367188 46.15625 L 159.890625 55.132812 " fill-opacity="1" fill-rule="nonzero"/><path fill="#ec1d27" d="M 187.292969 41.847656 L 186.703125 54.683594 C 182.777344 54.125 178.761719 53.835938 174.6875 53.835938 C 170.675781 53.835938 166.730469 54.113281 162.867188 54.664062 L 161.289062 45.304688 C 169.472656 43.054688 178.125 41.847656 187.070312 41.847656 L 187.292969 41.847656 " fill-opacity="1" fill-rule="nonzero"/><path fill="#ec1d27" d="M 220.351562 47.703125 L 213.039062 63.066406 C 205.800781 59.351562 197.957031 56.65625 189.695312 55.175781 L 190.308594 41.902344 C 200.859375 42.246094 210.96875 44.269531 220.351562 47.703125 " fill-opacity="1" fill-rule="nonzero"/><path fill="#ec1d27" d="M 249.582031 64.867188 L 235.089844 79.382812 C 229.40625 73.527344 222.878906 68.503906 215.707031 64.492188 L 223.179688 48.789062 C 232.933594 52.703125 241.84375 58.171875 249.582031 64.867188 " fill-opacity="1" fill-rule="nonzero"/><g clip-path="url(#id2)"><path fill="#ec1d27" d="M 275.300781 101.976562 L 250.820312 101.976562 C 247.261719 94.511719 242.648438 87.644531 237.15625 81.585938 L 251.839844 66.878906 C 262.320312 76.542969 270.4375 88.535156 275.300781 101.976562 " fill-opacity="1" fill-rule="nonzero"/></g><path fill="#ec1d27" d="M 182.417969 63.097656 C 182.417969 63.097656 182.042969 63.007812 181.34375 62.84375 C 180.992188 62.761719 180.5625 62.664062 180.050781 62.542969 C 179.5625 62.449219 179.003906 62.339844 178.371094 62.21875 C 177.75 62.085938 177.035156 61.980469 176.257812 61.863281 C 175.484375 61.734375 174.636719 61.632812 173.734375 61.535156 C 171.925781 61.320312 169.875 61.207031 167.628906 61.140625 C 165.382812 61.128906 162.941406 61.15625 160.371094 61.398438 C 157.804688 61.636719 155.089844 61.96875 152.320312 62.542969 C 149.554688 63.105469 146.710938 63.816406 143.875 64.726562 C 143.164062 64.953125 142.464844 65.207031 141.753906 65.449219 C 141.410156 65.570312 141.015625 65.695312 140.714844 65.816406 L 139.648438 66.234375 C 138.933594 66.515625 138.222656 66.796875 137.507812 67.078125 L 135.445312 67.996094 C 134.0625 68.582031 132.722656 69.304688 131.371094 69.980469 C 130.6875 70.308594 130.046875 70.710938 129.386719 71.074219 C 128.738281 71.449219 128.074219 71.804688 127.4375 72.195312 C 126.804688 72.597656 126.175781 72.996094 125.550781 73.390625 L 124.613281 73.988281 L 123.714844 74.625 C 123.113281 75.046875 122.515625 75.464844 121.921875 75.882812 C 121.34375 76.316406 120.78125 76.765625 120.214844 77.203125 C 117.949219 78.941406 115.917969 80.820312 114.03125 82.640625 C 113.128906 83.59375 112.226562 84.5 111.40625 85.417969 C 110.613281 86.367188 109.792969 87.238281 109.097656 88.152344 C 107.664062 89.945312 106.457031 91.671875 105.433594 93.234375 C 104.941406 94.03125 104.484375 94.773438 104.058594 95.460938 C 103.660156 96.164062 103.3125 96.824219 102.992188 97.414062 C 102.320312 98.582031 101.925781 99.5625 101.601562 100.207031 C 101.292969 100.859375 101.132812 101.207031 101.132812 101.207031 C 101.132812 101.207031 101.28125 100.851562 101.558594 100.1875 C 101.855469 99.53125 102.210938 98.527344 102.828125 97.332031 C 103.128906 96.726562 103.445312 96.050781 103.816406 95.328125 C 104.214844 94.617188 104.644531 93.851562 105.101562 93.03125 C 106.0625 91.414062 107.203125 89.621094 108.574219 87.75 C 109.238281 86.796875 110.023438 85.882812 110.785156 84.890625 C 111.578125 83.921875 112.449219 82.964844 113.324219 81.960938 C 115.15625 80.035156 117.140625 78.035156 119.367188 76.167969 C 119.925781 75.699219 120.476562 75.214844 121.050781 74.746094 C 121.636719 74.296875 122.226562 73.84375 122.820312 73.386719 L 123.714844 72.699219 L 124.640625 72.050781 C 125.265625 71.617188 125.890625 71.183594 126.515625 70.746094 C 127.148438 70.316406 127.8125 69.925781 128.460938 69.511719 C 129.121094 69.109375 129.757812 68.667969 130.441406 68.304688 C 131.796875 67.550781 133.132812 66.753906 134.550781 66.082031 L 136.65625 65.035156 C 137.359375 64.722656 138.058594 64.410156 138.757812 64.101562 L 139.804688 63.636719 C 140.203125 63.457031 140.539062 63.34375 140.90625 63.195312 C 141.625 62.914062 142.339844 62.617188 143.058594 62.355469 C 145.941406 61.289062 148.847656 60.429688 151.695312 59.71875 C 154.542969 59.003906 157.351562 58.53125 160.023438 58.167969 C 162.699219 57.800781 165.253906 57.660156 167.613281 57.570312 C 169.976562 57.539062 172.148438 57.566406 174.066406 57.710938 C 175.027344 57.773438 175.925781 57.84375 176.753906 57.945312 C 177.585938 58.035156 178.347656 58.109375 179.046875 58.226562 C 179.742188 58.332031 180.363281 58.425781 180.902344 58.507812 C 181.414062 58.605469 181.851562 58.6875 182.203125 58.753906 C 182.914062 58.886719 183.289062 58.960938 183.289062 58.960938 L 182.417969 63.097656 " fill-opacity="1" fill-rule="nonzero"/><g clip-path="url(#id3)"><path fill="#ec1d27" d="M 177.214844 108.457031 L 216.464844 0.00390625 L 168.683594 105.953125 C 162.398438 106.492188 157.460938 111.761719 157.460938 118.199219 C 157.460938 124.988281 162.960938 130.496094 169.742188 130.496094 C 176.523438 130.496094 182.019531 124.988281 182.019531 118.199219 C 182.019531 114.226562 180.132812 110.703125 177.214844 108.457031 " fill-opacity="1" fill-rule="nonzero"/></g><path fill="#ec1d27" d="M 232.429688 106.617188 L 230.527344 103.433594 L 239.851562 97.855469 L 241.75 101.039062 L 232.429688 106.617188 " fill-opacity="1" fill-rule="nonzero"/><path fill="#ec1d27" d="M 222.992188 93.367188 L 220.476562 90.648438 L 228.4375 83.25 L 230.953125 85.96875 L 222.992188 93.367188 " fill-opacity="1" fill-rule="nonzero"/><path fill="#ec1d27" d="M 211.015625 82.371094 L 207.988281 80.238281 L 214.238281 71.34375 L 217.265625 73.480469 L 211.015625 82.371094 " fill-opacity="1" fill-rule="nonzero"/><path fill="#ec1d27" d="M 197.019531 74.109375 L 193.613281 72.652344 L 197.882812 62.652344 L 201.285156 64.113281 L 197.019531 74.109375 " fill-opacity="1" fill-rule="nonzero"/><g fill="#000000" fill-opacity="1"><g transform="translate(25.95703, 182.879856)"><g><path d="M 0.519531 0 L 10.5625 0 L 13.265625 -15.242188 L 27.054688 -15.242188 L 24.402344 0 L 34.441406 0 L 40.996094 -37.148438 L 30.90625 -37.148438 L 28.460938 -23.101562 L 14.621094 -23.101562 L 17.117188 -37.148438 L 7.074219 -37.148438 Z M 0.519531 0 "/></g></g></g><g fill="#000000" fill-opacity="1"><g transform="translate(65.647886, 182.879856)"><g><path d="M 13.683594 0.675781 C 22.789062 0.675781 29.605469 -4.628906 31.164062 -13.371094 C 32.671875 -22.113281 27.730469 -27.417969 18.679688 -27.417969 C 9.519531 -27.417969 2.707031 -22.113281 1.144531 -13.371094 C -0.363281 -4.683594 4.578125 0.675781 13.683594 0.675781 Z M 14.984375 -6.761719 C 11.445312 -6.761719 9.417969 -9.46875 10.09375 -13.371094 C 10.769531 -17.273438 13.734375 -19.980469 17.324219 -19.980469 C 20.914062 -19.980469 22.890625 -17.273438 22.214844 -13.371094 C 21.539062 -9.46875 18.574219 -6.761719 14.984375 -6.761719 Z M 14.984375 -6.761719 "/></g></g></g><g fill="#000000" fill-opacity="1"><g transform="translate(97.95198, 182.879856)"><g><path d="M 0.105469 0 L 9.054688 0 L 11.445312 -13.476562 C 12.121094 -17.222656 14.671875 -19.71875 17.792969 -19.71875 C 19.144531 -19.71875 20.863281 -19.300781 22.269531 -18.574219 L 23.722656 -26.585938 C 22.839844 -27.054688 21.746094 -27.261719 20.65625 -27.261719 C 17.742188 -27.261719 15.242188 -25.546875 13.578125 -22.578125 L 13.058594 -22.578125 L 13.734375 -26.742188 L 4.839844 -26.742188 Z M 0.105469 0 "/></g></g></g><g fill="#000000" fill-opacity="1"><g transform="translate(120.268336, 182.879856)"><g><path d="M 11.550781 0.882812 C 19.71875 0.882812 25.703125 -2.707031 26.742188 -8.53125 C 27.835938 -14.878906 21.902344 -15.867188 17.117188 -16.492188 C 13.527344 -16.910156 10.300781 -17.167969 10.71875 -19.613281 C 10.976562 -21.226562 12.902344 -22.320312 15.347656 -22.320312 C 18.15625 -22.320312 19.875 -20.863281 19.511719 -18.679688 L 27.367188 -18.679688 C 28.355469 -24.140625 23.515625 -27.625 16.234375 -27.625 C 8.792969 -27.625 3.328125 -24.089844 2.339844 -18.730469 C 1.039062 -11.394531 7.855469 -11.03125 12.539062 -10.5625 C 15.503906 -10.199219 18.054688 -9.9375 17.636719 -7.386719 C 17.273438 -5.617188 15.140625 -4.421875 12.644531 -4.421875 C 9.363281 -4.421875 7.441406 -6.140625 7.855469 -8.585938 L 0.363281 -8.585938 C -0.675781 -2.863281 3.746094 0.882812 11.550781 0.882812 Z M 11.550781 0.882812 "/></g></g></g><g fill="#000000" fill-opacity="1"><g transform="translate(149.035108, 182.879856)"><g><path d="M 13.734375 0.675781 C 20.550781 0.675781 26.847656 -2.707031 29.03125 -7.855469 L 21.433594 -8.949219 C 20.289062 -6.867188 17.949219 -5.359375 15.296875 -5.359375 C 11.863281 -5.359375 9.886719 -7.597656 9.988281 -10.976562 L 30.4375 -10.976562 C 30.59375 -11.394531 30.800781 -12.644531 30.90625 -13.265625 C 32.464844 -21.902344 27.679688 -27.417969 18.832031 -27.417969 C 9.988281 -27.417969 2.757812 -21.957031 1.195312 -13.421875 C -0.3125 -4.839844 4.839844 0.675781 13.734375 0.675781 Z M 10.71875 -15.609375 C 11.757812 -19.09375 14.359375 -21.382812 17.636719 -21.382812 C 20.863281 -21.382812 22.789062 -18.78125 22.371094 -15.609375 Z M 10.71875 -15.609375 "/></g></g></g><g fill="#000000" fill-opacity="1"><g transform="translate(181.131127, 182.879856)"><g><path d="M -1.976562 11.964844 L 6.972656 11.964844 L 9.730469 -3.851562 L 10.199219 -3.851562 C 11.5 -0.988281 13.945312 0.675781 17.792969 0.675781 C 24.871094 0.675781 30.644531 -4.839844 32.152344 -13.371094 C 33.660156 -22.007812 29.914062 -27.417969 22.734375 -27.417969 C 18.886719 -27.417969 15.867188 -25.753906 13.578125 -22.890625 L 13.109375 -22.890625 L 13.789062 -26.742188 L 4.839844 -26.742188 Z M 15.972656 -6.761719 C 12.433594 -6.761719 10.40625 -9.574219 11.03125 -13.371094 C 11.757812 -17.167969 14.777344 -19.980469 18.3125 -19.980469 C 21.851562 -19.980469 23.878906 -17.167969 23.203125 -13.371094 C 22.527344 -9.574219 19.511719 -6.761719 15.972656 -6.761719 Z M 15.972656 -6.761719 "/></g></g></g><g fill="#000000" fill-opacity="1"><g transform="translate(214.475615, 182.879856)"><g><path d="M 13.683594 0.675781 C 22.789062 0.675781 29.605469 -4.628906 31.164062 -13.371094 C 32.671875 -22.113281 27.730469 -27.417969 18.679688 -27.417969 C 9.519531 -27.417969 2.707031 -22.113281 1.144531 -13.371094 C -0.363281 -4.683594 4.578125 0.675781 13.683594 0.675781 Z M 14.984375 -6.761719 C 11.445312 -6.761719 9.417969 -9.46875 10.09375 -13.371094 C 10.769531 -17.273438 13.734375 -19.980469 17.324219 -19.980469 C 20.914062 -19.980469 22.890625 -17.273438 22.214844 -13.371094 C 21.539062 -9.46875 18.574219 -6.761719 14.984375 -6.761719 Z M 14.984375 -6.761719 "/></g></g></g><g fill="#000000" fill-opacity="1"><g transform="translate(246.779699, 182.879856)"><g><path d="M 5.984375 0 L 17.222656 0 L 24.140625 -16.285156 L 24.609375 -16.285156 L 25.859375 0 L 37.09375 0 L 49.476562 -26.742188 L 40.582031 -26.742188 L 32.777344 -8.84375 L 32.359375 -8.84375 L 30.226562 -26.742188 L 22.269531 -26.742188 L 14.203125 -9.105469 L 13.734375 -9.105469 L 12.277344 -26.742188 L 3.019531 -26.742188 Z M 5.984375 0 "/></g></g></g><g fill="#000000" fill-opacity="1"><g transform="translate(294.637607, 182.879856)"><g><path d="M 13.734375 0.675781 C 20.550781 0.675781 26.847656 -2.707031 29.03125 -7.855469 L 21.433594 -8.949219 C 20.289062 -6.867188 17.949219 -5.359375 15.296875 -5.359375 C 11.863281 -5.359375 9.886719 -7.597656 9.988281 -10.976562 L 30.4375 -10.976562 C 30.59375 -11.394531 30.800781 -12.644531 30.90625 -13.265625 C 32.464844 -21.902344 27.679688 -27.417969 18.832031 -27.417969 C 9.988281 -27.417969 2.757812 -21.957031 1.195312 -13.421875 C -0.3125 -4.839844 4.839844 0.675781 13.734375 0.675781 Z M 10.71875 -15.609375 C 11.757812 -19.09375 14.359375 -21.382812 17.636719 -21.382812 C 20.863281 -21.382812 22.789062 -18.78125 22.371094 -15.609375 Z M 10.71875 -15.609375 "/></g></g></g><g fill="#000000" fill-opacity="1"><g transform="translate(326.733614, 182.879856)"><g><path d="M 0.105469 0 L 9.054688 0 L 11.445312 -13.476562 C 12.121094 -17.222656 14.671875 -19.71875 17.792969 -19.71875 C 19.144531 -19.71875 20.863281 -19.300781 22.269531 -18.574219 L 23.722656 -26.585938 C 22.839844 -27.054688 21.746094 -27.261719 20.65625 -27.261719 C 17.742188 -27.261719 15.242188 -25.546875 13.578125 -22.578125 L 13.058594 -22.578125 L 13.734375 -26.742188 L 4.839844 -26.742188 Z M 0.105469 0 "/></g></g></g></svg>